<?xml version="1.0" encoding="utf-8"?>
<!-- Generator: Adobe Illustrator 26.3.1, SVG Export Plug-In . SVG Version: 6.00 Build 0)  -->
<svg version="1.1" id="Capa_1" xmlns="http://www.w3.org/2000/svg" xmlns:xlink="http://www.w3.org/1999/xlink" x="0px" y="0px"
	 viewBox="0 0 656.2 326.3" style="enable-background:new 0 0 656.2 326.3;" xml:space="preserve">
<style type="text/css">
	.st0{fill:#9CFF1E;}
	.st1{stroke:#FFFFFF;stroke-width:0.75;stroke-miterlimit:10;}
</style>
<path class="st0" d="M1645.3-98"/>
<path class="st0" d="M-2046.6-879.3"/>
<polygon class="st1" points="233.5,41.2 540.7,41.2 545.9,46.5 545.9,47.1 612.4,47.1 613.3,47.1 614,47.8 639.9,73.7 640.6,74.4 
	640.6,75.4 640.6,274.7 640.6,275.7 639.9,276.4 614,302.3 613.3,303 612.4,303 31.9,303 30.9,303 30.2,302.3 4.3,276.4 3.6,275.7 
	3.6,274.7 3.6,49.4 3.6,48.5 4.3,47.8 30.2,21.8 30.9,21.1 31.9,21.1 164.6,21.1 165.6,21.1 166.2,21.8 191.5,47.1 228.2,47.1 
	228.2,46.5 "/>
</svg>
