
<svg xmlns="http://www.w3.org/2000/svg" version="1.1" xmlns:xlink="http://www.w3.org/1999/xlink" preserveAspectRatio="none" x="0px" y="0px" width="2100px" height="694px" viewBox="0 0 2100 694">
<defs/>

<g id="Capa_1">
<g transform="matrix( 1, 0, 0, 0.999969482421875, 0,-0.65) ">
<g>
<g>
<path fill="#000000" stroke="none" d="
M 2060.6 643.65
L 2060.6 151.25 1473.4 151.35 1473.05 151.35 1402.3 74.95 1402.3 74.6 1094.75 74.6 1094.75 74.95 1045.25 125.1 1045.25 125.45 737.7 125.45 737.7 125.1 688.15 74.95 380.6 74.95 380.6 74.6 331.1 24.45 53 24.45 23.55 54.3 23.55 643.65 23.85 643.65 2060.6 643.65 Z"/>
</g>
</g>

<g>
<path stroke="#FFFFFF" stroke-width="1" stroke-linejoin="miter" stroke-linecap="round" stroke-miterlimit="10" fill="none" d="
M 1473.4 151.35
L 2060.6 151.25 2060.6 643.65 23.85 643.65
M 23.55 643.65
L 23.55 54.3 53 24.45 331.1 24.45 380.6 74.6
M 380.6 74.95
L 688.15 74.95 737.7 125.1
M 737.7 125.45
L 1045.25 125.45
M 1045.25 125.1
L 1094.75 74.95
M 1094.75 74.6
L 1402.3 74.6
M 1402.3 74.95
L 1473.05 151.35"/>
</g>
</g>
</g>
</svg>
